<?xml version="1.0" encoding="UTF-8"?>
<svg xmlns="http://www.w3.org/2000/svg" viewBox="0 0 760 440" role="img" aria-label="AlphaForge Core Product Loop">
  <defs>
    <marker id="loop-arrow-l" viewBox="0 0 10 10" refX="8" refY="5" markerWidth="6" markerHeight="6" orient="auto">
      <path d="M0,0 L10,5 L0,10 Z" fill="#0069df"/>
    </marker>
  </defs>

  <rect width="760" height="440" rx="12" fill="#f6f8fa"/>

  <!-- Dashed circle path -->
  <circle cx="380" cy="220" r="130" fill="none" stroke="#d0d7de" stroke-width="1.5" stroke-dasharray="5,4"/>

  <!-- Nodes -->
  <!-- 1. Information (top) -->
  <circle cx="380" cy="90" r="44" fill="#ffffff" stroke="#0069df" stroke-width="2.5"/>
  <text x="380" y="86" text-anchor="middle" font-family="Segoe UI, Helvetica, sans-serif" font-size="13" font-weight="700" fill="#0069df">Information</text>
  <text x="380" y="102" text-anchor="middle" font-family="Segoe UI, Helvetica, sans-serif" font-size="18">📊</text>

  <!-- 2. Knowledge (top-right) -->
  <circle cx="482" cy="139" r="44" fill="#ffffff" stroke="#0078d4" stroke-width="2.5"/>
  <text x="482" y="135" text-anchor="middle" font-family="Segoe UI, Helvetica, sans-serif" font-size="13" font-weight="700" fill="#0078d4">Knowledge</text>
  <text x="482" y="151" text-anchor="middle" font-family="Segoe UI, Helvetica, sans-serif" font-size="18">💡</text>

  <!-- 3. Thesis (right) -->
  <circle cx="507" cy="249" r="44" fill="#ffffff" stroke="#0094d9" stroke-width="2.5"/>
  <text x="507" y="245" text-anchor="middle" font-family="Segoe UI, Helvetica, sans-serif" font-size="13" font-weight="700" fill="#0094d9">Thesis</text>
  <text x="507" y="261" text-anchor="middle" font-family="Segoe UI, Helvetica, sans-serif" font-size="18">📝</text>

  <!-- 4. Decision (bottom-right) -->
  <circle cx="437" cy="337" r="44" fill="#ffffff" stroke="#00a8a8" stroke-width="2.5"/>
  <text x="437" y="333" text-anchor="middle" font-family="Segoe UI, Helvetica, sans-serif" font-size="13" font-weight="700" fill="#00a8a8">Decision</text>
  <text x="437" y="349" text-anchor="middle" font-family="Segoe UI, Helvetica, sans-serif" font-size="18">✅</text>

  <!-- 5. Validation (bottom-left) -->
  <circle cx="324" cy="337" r="44" fill="#ffffff" stroke="#00a8a8" stroke-width="2.5"/>
  <text x="324" y="333" text-anchor="middle" font-family="Segoe UI, Helvetica, sans-serif" font-size="12" font-weight="700" fill="#00a8a8">Validation</text>
  <text x="324" y="349" text-anchor="middle" font-family="Segoe UI, Helvetica, sans-serif" font-size="18">🔍</text>

  <!-- 6. Review (left) -->
  <circle cx="253" cy="249" r="44" fill="#ffffff" stroke="#0094d9" stroke-width="2.5"/>
  <text x="253" y="245" text-anchor="middle" font-family="Segoe UI, Helvetica, sans-serif" font-size="13" font-weight="700" fill="#0094d9">Review</text>
  <text x="253" y="261" text-anchor="middle" font-family="Segoe UI, Helvetica, sans-serif" font-size="18">📋</text>

  <!-- 7. Improvement (top-left) -->
  <circle cx="278" cy="139" r="44" fill="#ffffff" stroke="#0078d4" stroke-width="2.5"/>
  <text x="278" y="135" text-anchor="middle" font-family="Segoe UI, Helvetica, sans-serif" font-size="11" font-weight="700" fill="#0078d4">Improvement</text>
  <text x="278" y="151" text-anchor="middle" font-family="Segoe UI, Helvetica, sans-serif" font-size="18">🔄</text>

  <!-- Directional arrows (small, on the circle between nodes) -->
  <path d="M 422,99 A 130,130 0 0,1 470,121" fill="none" stroke="#0069df" stroke-width="2" marker-end="url(#loop-arrow-l)"/>
  <path d="M 521,154 A 130,130 0 0,1 524,234" fill="none" stroke="#0069df" stroke-width="2" marker-end="url(#loop-arrow-l)"/>
  <path d="M 503,292 A 130,130 0 0,1 474,323" fill="none" stroke="#0069df" stroke-width="2" marker-end="url(#loop-arrow-l)"/>
  <path d="M 397,348 A 130,130 0 0,1 363,348" fill="none" stroke="#0069df" stroke-width="2" marker-end="url(#loop-arrow-l)"/>
  <path d="M 286,323 A 130,130 0 0,1 257,292" fill="none" stroke="#0069df" stroke-width="2" marker-end="url(#loop-arrow-l)"/>
  <path d="M 236,234 A 130,130 0 0,1 239,154" fill="none" stroke="#0069df" stroke-width="2" marker-end="url(#loop-arrow-l)"/>
  <path d="M 290,121 A 130,130 0 0,1 338,99" fill="none" stroke="#0069df" stroke-width="2" marker-end="url(#loop-arrow-l)"/>

  <!-- Center label -->
  <text x="380" y="215" text-anchor="middle" font-family="Segoe UI, Helvetica, sans-serif" font-size="14" font-weight="700" fill="#1f2328">Core Loop</text>
  <text x="380" y="233" text-anchor="middle" font-family="Segoe UI, Helvetica, sans-serif" font-size="11" fill="#656d76">Continuous improvement</text>
</svg>
